<?xml version="1.0" encoding="UTF-8" standalone="no"?>
<svg
   width="165.24mm"
   height="81.24000000000001mm"
   viewBox="0 0 165.24 81.24000000000001"
   version="1.1"
   id="svg34"
   sodipodi:docname="Model_3.svg"
   xmlns:inkscape="http://www.inkscape.org/namespaces/inkscape"
   xmlns:sodipodi="http://sodipodi.sourceforge.net/DTD/sodipodi-0.dtd"
   xmlns="http://www.w3.org/2000/svg"
   xmlns:svg="http://www.w3.org/2000/svg">
  <defs
     id="defs34" />
  <sodipodi:namedview
     id="namedview34"
     pagecolor="#ffffff"
     bordercolor="#000000"
     borderopacity="0.25"
     inkscape:showpageshadow="2"
     inkscape:pageopacity="0.0"
     inkscape:pagecheckerboard="0"
     inkscape:deskcolor="#d1d1d1"
     inkscape:document-units="mm" />
  <g
     id="Sketch001"
     transform="translate(1.620000,79.620000) scale(1,-1)">
    <path
       style="color:#000000;fill:#00ff00;fill-rule:evenodd;stroke-linecap:square;-inkscape-stroke:none"
       d="M 1.8242187,1.8242187 V 39 39.175781 H 2.1757813 V 39 2.1757813 H 159.82422 V 39 39.175781 h 0.35156 V 39 1.8242187 Z"
       id="Sketch001_w0000" />
    <path
       style="color:#000000;fill:#00ff00;stroke-linecap:square;-inkscape-stroke:none"
       d="m 40,5.8242187 c -6.998129,0 -12.675781,5.6776523 -12.675781,12.6757813 0,6.998129 5.677652,12.675781 12.675781,12.675781 6.998129,0 12.675781,-5.677652 12.675781,-12.675781 C 52.675781,11.501871 46.998129,5.8242187 40,5.8242187 Z m 0,0.3515625 C 46.808976,6.1757813 52.324219,11.691024 52.324219,18.5 52.324219,25.308976 46.808976,30.824219 40,30.824219 33.191024,30.824219 27.675781,25.308976 27.675781,18.5 27.675781,11.691024 33.191024,6.1757812 40,6.1757812 Z"
       id="circle1" />
    <path
       style="color:#000000;fill:#00ff00;stroke-linecap:square;-inkscape-stroke:none"
       d="m 122,5.8242187 c -6.99813,0 -12.67578,5.6776523 -12.67578,12.6757813 0,6.998129 5.67765,12.675781 12.67578,12.675781 6.99813,0 12.67578,-5.677652 12.67578,-12.675781 0,-6.998129 -5.67765,-12.6757813 -12.67578,-12.6757813 z m 0,0.3515625 c 6.80898,10e-8 12.32422,5.5152428 12.32422,12.3242188 0,6.808976 -5.51524,12.324219 -12.32422,12.324219 -6.80898,0 -12.32422,-5.515243 -12.32422,-12.324219 0,-6.808976 5.51524,-12.3242188 12.32422,-12.3242188 z"
       id="circle2" />
    <title
       id="title2">b'Model_zgrzewania'</title>
  </g>
  <g
     id="Sketch"
     transform="translate(1.620000,79.620000) scale(1,-1)">
    <path
       style="color:#000000;fill:#ff0000;fill-rule:evenodd;stroke-linecap:square;-inkscape-stroke:none"
       d="M -0.17578125,-0.17578125 V 0 0.17578125 78.175781 H 162.17578 V -0.17578125 H 0.17578125 Z m 0.3515625,0.3515625 H 161.82422 V 77.824219 H 0.17578125 Z"
       id="Sketch_w0000" />
    <path
       style="color:#000000;fill:#ff0000;fill-rule:evenodd;stroke-linecap:square;-inkscape-stroke:none"
       d="m 29.824219,18.324219 v 0.351562 H 30 50 50.175781 V 18.324219 H 50 30 Z"
       id="Sketch_w0001" />
    <path
       style="color:#000000;fill:#ff0000;fill-rule:evenodd;stroke-linecap:square;-inkscape-stroke:none"
       d="M 39.824219,8.3242188 V 8.5 v 20 0.175781 h 0.351562 V 28.5 8.5 8.3242188 Z"
       id="Sketch_w0002" />
    <path
       style="color:#000000;fill:#ff0000;fill-rule:evenodd;stroke-linecap:square;-inkscape-stroke:none"
       d="m 47.070312,11.181641 -0.123046,0.123047 -14.142579,14.142578 -0.123046,0.123046 0.248046,0.248047 0.123047,-0.123047 14.142578,-14.142578 0.123047,-0.123046 z"
       id="Sketch_w0003" />
    <path
       style="color:#000000;fill:#ff0000;fill-rule:evenodd;stroke-linecap:square;-inkscape-stroke:none"
       d="m 32.929687,11.181641 -0.248046,0.248047 0.123046,0.123046 14.142579,14.142578 0.123046,0.123047 0.248047,-0.248047 -0.123047,-0.123046 -14.142578,-14.142578 z"
       id="Sketch_w0004" />
    <path
       style="color:#000000;fill:#ff0000;fill-rule:evenodd;stroke-linecap:square;-inkscape-stroke:none"
       d="m 29.824219,59.324219 v 0.351562 H 30 50 50.175781 V 59.324219 H 50 30 Z"
       id="Sketch_w0005" />
    <path
       style="color:#000000;fill:#ff0000;fill-rule:evenodd;stroke-linecap:square;-inkscape-stroke:none"
       d="M 39.824219,49.324219 V 49.5 v 20 0.175781 h 0.351562 V 69.5 49.5 49.324219 Z"
       id="Sketch_w0006" />
    <path
       style="color:#000000;fill:#ff0000;fill-rule:evenodd;stroke-linecap:square;-inkscape-stroke:none"
       d="m 47.070312,52.181641 -0.123046,0.123046 -14.142579,14.142579 -0.123046,0.123046 0.248046,0.248047 0.123047,-0.123047 14.142578,-14.142578 0.123047,-0.123047 z"
       id="Sketch_w0007" />
    <path
       style="color:#000000;fill:#ff0000;fill-rule:evenodd;stroke-linecap:square;-inkscape-stroke:none"
       d="m 32.929687,52.181641 -0.248046,0.248046 0.123046,0.123047 14.142579,14.142578 0.123046,0.123047 0.248047,-0.248047 -0.123047,-0.123046 -14.142578,-14.142579 z"
       id="Sketch_w0008" />
    <path
       style="color:#000000;fill:#ff0000;fill-rule:evenodd;stroke-linecap:square;-inkscape-stroke:none"
       d="m 111.82422,59.324219 v 0.351562 H 112 h 20 0.17578 V 59.324219 H 132 112 Z"
       id="Sketch_w0009" />
    <path
       style="color:#000000;fill:#ff0000;fill-rule:evenodd;stroke-linecap:square;-inkscape-stroke:none"
       d="M 121.82422,49.324219 V 49.5 v 20 0.175781 h 0.35156 V 69.5 49.5 49.324219 Z"
       id="Sketch_w0010" />
    <path
       style="color:#000000;fill:#ff0000;fill-rule:evenodd;stroke-linecap:square;-inkscape-stroke:none"
       d="m 129.07031,52.181641 -0.12304,0.123046 -14.14258,14.142579 -0.12305,0.123046 0.24805,0.248047 0.12304,-0.123047 14.14258,-14.142578 0.12305,-0.123047 z"
       id="Sketch_w0011" />
    <path
       style="color:#000000;fill:#ff0000;fill-rule:evenodd;stroke-linecap:square;-inkscape-stroke:none"
       d="m 114.92969,52.181641 -0.24805,0.248046 0.12305,0.123047 14.14258,14.142578 0.12304,0.123047 0.24805,-0.248047 -0.12305,-0.123046 -14.14258,-14.142579 z"
       id="Sketch_w0012" />
    <path
       style="color:#000000;fill:#ff0000;stroke-linecap:square;-inkscape-stroke:none"
       d="m 122,49.074219 c -0.23265,0 -0.42578,0.193133 -0.42578,0.425781 0,0.232648 0.19313,0.425781 0.42578,0.425781 0.23265,0 0.42578,-0.193133 0.42578,-0.425781 0,-0.232648 -0.19313,-0.425781 -0.42578,-0.425781 z m 0,0.351562 c 0.0435,0 0.0742,0.03072 0.0742,0.07422 0,0.04349 -0.0307,0.07422 -0.0742,0.07422 -0.0435,0 -0.0742,-0.03072 -0.0742,-0.07422 0,-0.04349 0.0307,-0.07422 0.0742,-0.07422 z"
       id="circle3" />
    <path
       style="color:#000000;fill:#ff0000;stroke-linecap:square;-inkscape-stroke:none"
       d="m 114.92969,52.003906 c -0.23265,0 -0.42578,0.193134 -0.42578,0.425781 0,0.232648 0.19313,0.423829 0.42578,0.423829 0.23265,0 0.42383,-0.191181 0.42383,-0.423829 0,-0.232647 -0.19118,-0.425781 -0.42383,-0.425781 z m 0,0.34961 c 0.0435,0 0.0742,0.03268 0.0742,0.07617 0,0.0435 -0.0307,0.07422 -0.0742,0.07422 -0.0435,0 -0.0762,-0.03072 -0.0762,-0.07422 0,-0.04349 0.0327,-0.07617 0.0762,-0.07617 z"
       id="circle4" />
    <path
       style="color:#000000;fill:#ff0000;stroke-linecap:square;-inkscape-stroke:none"
       d="m 112,59.074219 c -0.23265,0 -0.42578,0.193133 -0.42578,0.425781 0,0.232648 0.19313,0.425781 0.42578,0.425781 0.23265,0 0.42578,-0.193133 0.42578,-0.425781 0,-0.232648 -0.19313,-0.425781 -0.42578,-0.425781 z m 0,0.351562 c 0.0435,0 0.0742,0.03072 0.0742,0.07422 0,0.04349 -0.0307,0.07422 -0.0742,0.07422 -0.0435,0 -0.0742,-0.03072 -0.0742,-0.07422 0,-0.04349 0.0307,-0.07422 0.0742,-0.07422 z"
       id="circle5" />
    <path
       style="color:#000000;fill:#ff0000;stroke-linecap:square;-inkscape-stroke:none"
       d="m 114.92969,66.146484 c -0.23265,0 -0.42578,0.191181 -0.42578,0.423828 0,0.232648 0.19313,0.425782 0.42578,0.425782 0.23265,0 0.42383,-0.193134 0.42383,-0.425782 0,-0.232647 -0.19118,-0.423828 -0.42383,-0.423828 z m 0,0.34961 c 0.0435,0 0.0742,0.03072 0.0742,0.07422 0,0.04349 -0.0307,0.07617 -0.0742,0.07617 -0.0435,0 -0.0762,-0.03268 -0.0762,-0.07617 0,-0.04349 0.0327,-0.07422 0.0762,-0.07422 z"
       id="circle6" />
    <path
       style="color:#000000;fill:#ff0000;stroke-linecap:square;-inkscape-stroke:none"
       d="m 122,69.074219 c -0.23265,0 -0.42578,0.193133 -0.42578,0.425781 0,0.232648 0.19313,0.425781 0.42578,0.425781 0.23265,0 0.42578,-0.193133 0.42578,-0.425781 0,-0.232648 -0.19313,-0.425781 -0.42578,-0.425781 z m 0,0.351562 c 0.0435,0 0.0742,0.03073 0.0742,0.07422 0,0.04349 -0.0307,0.07422 -0.0742,0.07422 -0.0435,0 -0.0742,-0.03073 -0.0742,-0.07422 0,-0.04349 0.0307,-0.07422 0.0742,-0.07422 z"
       id="circle7" />
    <path
       style="color:#000000;fill:#ff0000;stroke-linecap:square;-inkscape-stroke:none"
       d="m 129.07031,66.146484 c -0.23265,0 -0.42383,0.191181 -0.42383,0.423828 0,0.232648 0.19118,0.425782 0.42383,0.425782 0.23265,0 0.42578,-0.193134 0.42578,-0.425782 0,-0.232647 -0.19313,-0.423828 -0.42578,-0.423828 z m 0,0.34961 c 0.0435,0 0.0762,0.03072 0.0762,0.07422 0,0.04349 -0.0327,0.07617 -0.0762,0.07617 -0.0435,0 -0.0742,-0.03268 -0.0742,-0.07617 0,-0.04349 0.0307,-0.07422 0.0742,-0.07422 z"
       id="circle8" />
    <path
       style="color:#000000;fill:#ff0000;stroke-linecap:square;-inkscape-stroke:none"
       d="m 132,59.074219 c -0.23265,0 -0.42578,0.193133 -0.42578,0.425781 0,0.232648 0.19313,0.425781 0.42578,0.425781 0.23265,0 0.42578,-0.193133 0.42578,-0.425781 0,-0.232648 -0.19313,-0.425781 -0.42578,-0.425781 z m 0,0.351562 c 0.0435,0 0.0742,0.03072 0.0742,0.07422 0,0.04349 -0.0307,0.07422 -0.0742,0.07422 -0.0435,0 -0.0742,-0.03072 -0.0742,-0.07422 0,-0.04349 0.0307,-0.07422 0.0742,-0.07422 z"
       id="circle9" />
    <path
       style="color:#000000;fill:#ff0000;stroke-linecap:square;-inkscape-stroke:none"
       d="m 129.07031,52.003906 c -0.23265,0 -0.42383,0.193134 -0.42383,0.425781 0,0.232648 0.19118,0.423829 0.42383,0.423829 0.23265,0 0.42578,-0.191181 0.42578,-0.423829 0,-0.232647 -0.19313,-0.425781 -0.42578,-0.425781 z m 0,0.34961 c 0.0435,0 0.0762,0.03268 0.0762,0.07617 0,0.0435 -0.0327,0.07422 -0.0762,0.07422 -0.0435,0 -0.0742,-0.03072 -0.0742,-0.07422 0,-0.04349 0.0307,-0.07617 0.0742,-0.07617 z"
       id="circle10" />
    <path
       style="color:#000000;fill:#ff0000;stroke-linecap:square;-inkscape-stroke:none"
       d="m 40,69.074219 c -0.232648,0 -0.425781,0.193133 -0.425781,0.425781 0,0.232648 0.193133,0.425781 0.425781,0.425781 0.232648,0 0.425781,-0.193133 0.425781,-0.425781 0,-0.232648 -0.193133,-0.425781 -0.425781,-0.425781 z m 0,0.351562 c 0.04349,0 0.07422,0.03073 0.07422,0.07422 0,0.04349 -0.03072,0.07422 -0.07422,0.07422 -0.04349,0 -0.07422,-0.03073 -0.07422,-0.07422 0,-0.04349 0.03072,-0.07422 0.07422,-0.07422 z"
       id="circle11" />
    <path
       style="color:#000000;fill:#ff0000;stroke-linecap:square;-inkscape-stroke:none"
       d="m 47.070312,66.146484 c -0.232647,0 -0.423828,0.191181 -0.423828,0.423828 0,0.232648 0.191181,0.425782 0.423828,0.425782 0.232648,0 0.425782,-0.193134 0.425782,-0.425782 0,-0.232647 -0.193134,-0.423828 -0.425782,-0.423828 z m 0,0.34961 c 0.0435,0 0.07617,0.03072 0.07617,0.07422 0,0.04349 -0.03268,0.07617 -0.07617,0.07617 -0.04349,0 -0.07422,-0.03268 -0.07422,-0.07617 0,-0.04349 0.03072,-0.07422 0.07422,-0.07422 z"
       id="circle12" />
    <path
       style="color:#000000;fill:#ff0000;stroke-linecap:square;-inkscape-stroke:none"
       d="m 50,59.074219 c -0.232648,0 -0.425781,0.193133 -0.425781,0.425781 0,0.232648 0.193133,0.425781 0.425781,0.425781 0.232648,0 0.425781,-0.193133 0.425781,-0.425781 0,-0.232648 -0.193133,-0.425781 -0.425781,-0.425781 z m 0,0.351562 c 0.04349,0 0.07422,0.03072 0.07422,0.07422 0,0.04349 -0.03072,0.07422 -0.07422,0.07422 -0.04349,0 -0.07422,-0.03072 -0.07422,-0.07422 0,-0.04349 0.03072,-0.07422 0.07422,-0.07422 z"
       id="circle13" />
    <path
       style="color:#000000;fill:#ff0000;stroke-linecap:square;-inkscape-stroke:none"
       d="m 47.070312,52.003906 c -0.232647,0 -0.423828,0.193134 -0.423828,0.425781 0,0.232648 0.191181,0.423829 0.423828,0.423829 0.232648,0 0.425782,-0.191181 0.425782,-0.423829 0,-0.232647 -0.193134,-0.425781 -0.425782,-0.425781 z m 0,0.34961 c 0.0435,0 0.07617,0.03268 0.07617,0.07617 0,0.0435 -0.03268,0.07422 -0.07617,0.07422 -0.04349,0 -0.07422,-0.03072 -0.07422,-0.07422 0,-0.04349 0.03072,-0.07617 0.07422,-0.07617 z"
       id="circle14" />
    <path
       style="color:#000000;fill:#ff0000;stroke-linecap:square;-inkscape-stroke:none"
       d="m 40,49.074219 c -0.232648,0 -0.425781,0.193133 -0.425781,0.425781 0,0.232648 0.193133,0.425781 0.425781,0.425781 0.232648,0 0.425781,-0.193133 0.425781,-0.425781 0,-0.232648 -0.193133,-0.425781 -0.425781,-0.425781 z m 0,0.351562 c 0.04349,0 0.07422,0.03072 0.07422,0.07422 0,0.04349 -0.03072,0.07422 -0.07422,0.07422 -0.04349,0 -0.07422,-0.03072 -0.07422,-0.07422 0,-0.04349 0.03072,-0.07422 0.07422,-0.07422 z"
       id="circle15" />
    <path
       style="color:#000000;fill:#ff0000;stroke-linecap:square;-inkscape-stroke:none"
       d="m 32.929687,52.003906 c -0.232647,0 -0.425781,0.193134 -0.425781,0.425781 0,0.232648 0.193134,0.423829 0.425781,0.423829 0.232648,0 0.423829,-0.191181 0.423829,-0.423829 0,-0.232647 -0.191181,-0.425781 -0.423829,-0.425781 z m 0,0.34961 c 0.0435,0 0.07422,0.03268 0.07422,0.07617 0,0.0435 -0.03072,0.07422 -0.07422,0.07422 -0.04349,0 -0.07617,-0.03072 -0.07617,-0.07422 0,-0.04349 0.03268,-0.07617 0.07617,-0.07617 z"
       id="circle16" />
    <path
       style="color:#000000;fill:#ff0000;stroke-linecap:square;-inkscape-stroke:none"
       d="m 30,59.074219 c -0.232648,0 -0.425781,0.193133 -0.425781,0.425781 0,0.232648 0.193133,0.425781 0.425781,0.425781 0.232648,0 0.425781,-0.193133 0.425781,-0.425781 0,-0.232648 -0.193133,-0.425781 -0.425781,-0.425781 z m 0,0.351562 c 0.04349,0 0.07422,0.03072 0.07422,0.07422 0,0.04349 -0.03073,0.07422 -0.07422,0.07422 -0.04349,0 -0.07422,-0.03072 -0.07422,-0.07422 0,-0.04349 0.03073,-0.07422 0.07422,-0.07422 z"
       id="circle17" />
    <path
       style="color:#000000;fill:#ff0000;stroke-linecap:square;-inkscape-stroke:none"
       d="m 32.929687,66.146484 c -0.232647,0 -0.425781,0.191181 -0.425781,0.423828 0,0.232648 0.193134,0.425782 0.425781,0.425782 0.232648,0 0.423829,-0.193134 0.423829,-0.425782 0,-0.232647 -0.191181,-0.423828 -0.423829,-0.423828 z m 0,0.34961 c 0.0435,0 0.07422,0.03072 0.07422,0.07422 0,0.04349 -0.03072,0.07617 -0.07422,0.07617 -0.04349,0 -0.07617,-0.03268 -0.07617,-0.07617 0,-0.04349 0.03268,-0.07422 0.07617,-0.07422 z"
       id="circle18" />
    <path
       style="color:#000000;fill:#ff0000;stroke-linecap:square;-inkscape-stroke:none"
       d="m 32.929687,25.146484 c -0.232647,0 -0.425781,0.191181 -0.425781,0.423828 0,0.232648 0.193134,0.425782 0.425781,0.425782 0.232648,0 0.423829,-0.193134 0.423829,-0.425782 0,-0.232647 -0.191181,-0.423828 -0.423829,-0.423828 z m 0,0.34961 c 0.0435,0 0.07422,0.03072 0.07422,0.07422 0,0.0435 -0.03072,0.07617 -0.07422,0.07617 -0.04349,0 -0.07617,-0.03268 -0.07617,-0.07617 0,-0.04349 0.03268,-0.07422 0.07617,-0.07422 z"
       id="circle19" />
    <path
       style="color:#000000;fill:#ff0000;stroke-linecap:square;-inkscape-stroke:none"
       d="m 30,18.074219 c -0.232648,0 -0.425781,0.193133 -0.425781,0.425781 0,0.232648 0.193133,0.425781 0.425781,0.425781 0.232648,0 0.425781,-0.193133 0.425781,-0.425781 0,-0.232648 -0.193133,-0.425781 -0.425781,-0.425781 z m 0,0.351562 c 0.04349,0 0.07422,0.03073 0.07422,0.07422 0,0.04349 -0.03073,0.07422 -0.07422,0.07422 -0.04349,0 -0.07422,-0.03073 -0.07422,-0.07422 0,-0.04349 0.03073,-0.07422 0.07422,-0.07422 z"
       id="circle20" />
    <path
       style="color:#000000;fill:#ff0000;stroke-linecap:square;-inkscape-stroke:none"
       d="m 32.929687,11.003906 c -0.232647,0 -0.425781,0.193134 -0.425781,0.425782 0,0.232647 0.193134,0.423828 0.425781,0.423828 0.232648,0 0.423829,-0.191181 0.423829,-0.423828 0,-0.232648 -0.191181,-0.425782 -0.423829,-0.425782 z m 0,0.34961 c 0.0435,0 0.07422,0.03268 0.07422,0.07617 0,0.04349 -0.03072,0.07422 -0.07422,0.07422 -0.04349,0 -0.07617,-0.03072 -0.07617,-0.07422 0,-0.0435 0.03268,-0.07617 0.07617,-0.07617 z"
       id="circle21" />
    <path
       style="color:#000000;fill:#ff0000;stroke-linecap:square;-inkscape-stroke:none"
       d="m 47.070312,11.003906 c -0.232647,0 -0.423828,0.193134 -0.423828,0.425782 0,0.232647 0.191181,0.423828 0.423828,0.423828 0.232648,0 0.425782,-0.191181 0.425782,-0.423828 0,-0.232648 -0.193134,-0.425782 -0.425782,-0.425782 z m 0,0.34961 c 0.0435,0 0.07617,0.03268 0.07617,0.07617 0,0.04349 -0.03268,0.07422 -0.07617,0.07422 -0.04349,0 -0.07422,-0.03072 -0.07422,-0.07422 0,-0.0435 0.03072,-0.07617 0.07422,-0.07617 z"
       id="circle22" />
    <path
       style="color:#000000;fill:#ff0000;stroke-linecap:square;-inkscape-stroke:none"
       d="m 50,18.074219 c -0.232648,0 -0.425781,0.193133 -0.425781,0.425781 0,0.232648 0.193133,0.425781 0.425781,0.425781 0.232648,0 0.425781,-0.193133 0.425781,-0.425781 0,-0.232648 -0.193133,-0.425781 -0.425781,-0.425781 z m 0,0.351562 c 0.04349,0 0.07422,0.03073 0.07422,0.07422 0,0.04349 -0.03072,0.07422 -0.07422,0.07422 -0.04349,0 -0.07422,-0.03073 -0.07422,-0.07422 0,-0.04349 0.03072,-0.07422 0.07422,-0.07422 z"
       id="circle23" />
    <path
       style="color:#000000;fill:#ff0000;stroke-linecap:square;-inkscape-stroke:none"
       d="m 47.070312,25.146484 c -0.232647,0 -0.423828,0.191181 -0.423828,0.423828 0,0.232648 0.191181,0.425782 0.423828,0.425782 0.232648,0 0.425782,-0.193134 0.425782,-0.425782 0,-0.232647 -0.193134,-0.423828 -0.425782,-0.423828 z m 0,0.34961 c 0.0435,0 0.07617,0.03072 0.07617,0.07422 0,0.0435 -0.03268,0.07617 -0.07617,0.07617 -0.04349,0 -0.07422,-0.03268 -0.07422,-0.07617 0,-0.04349 0.03072,-0.07422 0.07422,-0.07422 z"
       id="circle24" />
    <path
       style="color:#000000;fill:#ff0000;stroke-linecap:square;-inkscape-stroke:none"
       d="m 40,8.0742188 c -0.232648,0 -0.425781,0.1931332 -0.425781,0.4257812 0,0.232648 0.193133,0.4257813 0.425781,0.4257813 0.232648,0 0.425781,-0.1931333 0.425781,-0.4257813 0,-0.232648 -0.193133,-0.4257813 -0.425781,-0.4257812 z m 0,0.3515625 c 0.04349,0 0.07422,0.030725 0.07422,0.074219 0,0.043494 -0.03072,0.074219 -0.07422,0.074219 -0.04349,0 -0.07422,-0.030725 -0.07422,-0.074219 0,-0.043494 0.03072,-0.074219 0.07422,-0.074219 z"
       id="circle25" />
    <path
       style="color:#000000;fill:#ff0000;stroke-linecap:square;-inkscape-stroke:none"
       d="m 40,28.074219 c -0.232648,0 -0.425781,0.193133 -0.425781,0.425781 0,0.232648 0.193133,0.425781 0.425781,0.425781 0.232648,0 0.425781,-0.193133 0.425781,-0.425781 0,-0.232648 -0.193133,-0.425781 -0.425781,-0.425781 z m 0,0.351562 c 0.04349,0 0.07422,0.03073 0.07422,0.07422 0,0.04349 -0.03072,0.07422 -0.07422,0.07422 -0.04349,0 -0.07422,-0.03073 -0.07422,-0.07422 0,-0.04349 0.03072,-0.07422 0.07422,-0.07422 z"
       id="circle26" />
    <path
       style="color:#000000;fill:#ff0000;fill-rule:evenodd;stroke-linecap:square;-inkscape-stroke:none"
       d="m 114.92969,11.181641 -0.24805,0.248047 0.12305,0.123046 14.14258,14.142578 0.12304,0.123047 0.24805,-0.248047 -0.12305,-0.123046 -14.14258,-14.142578 z"
       id="Sketch_w0037" />
    <path
       style="color:#000000;fill:#ff0000;fill-rule:evenodd;stroke-linecap:square;-inkscape-stroke:none"
       d="m 129.07031,11.181641 -0.12304,0.123047 -14.14258,14.142578 -0.12305,0.123046 0.24805,0.248047 0.12304,-0.123047 14.14258,-14.142578 0.12305,-0.123046 z"
       id="Sketch_w0038" />
    <path
       style="color:#000000;fill:#ff0000;fill-rule:evenodd;stroke-linecap:square;-inkscape-stroke:none"
       d="M 121.82422,8.3242188 V 8.5 v 20 0.175781 h 0.35156 V 28.5 8.5 8.3242188 Z"
       id="Sketch_w0039" />
    <path
       style="color:#000000;fill:#ff0000;fill-rule:evenodd;stroke-linecap:square;-inkscape-stroke:none"
       d="m 111.82422,18.324219 v 0.351562 H 112 h 20 0.17578 V 18.324219 H 132 112 Z"
       id="Sketch_w0040" />
    <path
       style="color:#000000;fill:#ff0000;stroke-linecap:square;-inkscape-stroke:none"
       d="m 122,28.074219 c -0.23265,0 -0.42578,0.193133 -0.42578,0.425781 0,0.232648 0.19313,0.425781 0.42578,0.425781 0.23265,0 0.42578,-0.193133 0.42578,-0.425781 0,-0.232648 -0.19313,-0.425781 -0.42578,-0.425781 z m 0,0.351562 c 0.0435,0 0.0742,0.03073 0.0742,0.07422 0,0.04349 -0.0307,0.07422 -0.0742,0.07422 -0.0435,0 -0.0742,-0.03073 -0.0742,-0.07422 0,-0.04349 0.0307,-0.07422 0.0742,-0.07422 z"
       id="circle27" />
    <path
       style="color:#000000;fill:#ff0000;stroke-linecap:square;-inkscape-stroke:none"
       d="m 129.07031,25.146484 c -0.23265,0 -0.42383,0.191181 -0.42383,0.423828 0,0.232648 0.19118,0.425782 0.42383,0.425782 0.23265,0 0.42578,-0.193134 0.42578,-0.425782 0,-0.232647 -0.19313,-0.423828 -0.42578,-0.423828 z m 0,0.34961 c 0.0435,0 0.0762,0.03072 0.0762,0.07422 0,0.0435 -0.0327,0.07617 -0.0762,0.07617 -0.0435,0 -0.0742,-0.03268 -0.0742,-0.07617 0,-0.04349 0.0307,-0.07422 0.0742,-0.07422 z"
       id="circle28" />
    <path
       style="color:#000000;fill:#ff0000;stroke-linecap:square;-inkscape-stroke:none"
       d="m 132,18.074219 c -0.23265,0 -0.42578,0.193133 -0.42578,0.425781 0,0.232648 0.19313,0.425781 0.42578,0.425781 0.23265,0 0.42578,-0.193133 0.42578,-0.425781 0,-0.232648 -0.19313,-0.425781 -0.42578,-0.425781 z m 0,0.351562 c 0.0435,0 0.0742,0.03073 0.0742,0.07422 0,0.04349 -0.0307,0.07422 -0.0742,0.07422 -0.0435,0 -0.0742,-0.03073 -0.0742,-0.07422 0,-0.04349 0.0307,-0.07422 0.0742,-0.07422 z"
       id="circle29" />
    <path
       style="color:#000000;fill:#ff0000;stroke-linecap:square;-inkscape-stroke:none"
       d="m 129.07031,11.003906 c -0.23265,0 -0.42383,0.193134 -0.42383,0.425782 0,0.232647 0.19118,0.423828 0.42383,0.423828 0.23265,0 0.42578,-0.191181 0.42578,-0.423828 0,-0.232648 -0.19313,-0.425782 -0.42578,-0.425782 z m 0,0.34961 c 0.0435,0 0.0762,0.03268 0.0762,0.07617 0,0.04349 -0.0327,0.07422 -0.0762,0.07422 -0.0435,0 -0.0742,-0.03072 -0.0742,-0.07422 0,-0.0435 0.0307,-0.07617 0.0742,-0.07617 z"
       id="circle30" />
    <path
       style="color:#000000;fill:#ff0000;stroke-linecap:square;-inkscape-stroke:none"
       d="m 114.92969,11.003906 c -0.23265,0 -0.42578,0.193134 -0.42578,0.425782 0,0.232647 0.19313,0.423828 0.42578,0.423828 0.23265,0 0.42383,-0.191181 0.42383,-0.423828 0,-0.232648 -0.19118,-0.425782 -0.42383,-0.425782 z m 0,0.34961 c 0.0435,0 0.0742,0.03268 0.0742,0.07617 0,0.04349 -0.0307,0.07422 -0.0742,0.07422 -0.0435,0 -0.0762,-0.03072 -0.0762,-0.07422 0,-0.0435 0.0327,-0.07617 0.0762,-0.07617 z"
       id="circle31" />
    <path
       style="color:#000000;fill:#ff0000;stroke-linecap:square;-inkscape-stroke:none"
       d="m 112,18.074219 c -0.23265,0 -0.42578,0.193133 -0.42578,0.425781 0,0.232648 0.19313,0.425781 0.42578,0.425781 0.23265,0 0.42578,-0.193133 0.42578,-0.425781 0,-0.232648 -0.19313,-0.425781 -0.42578,-0.425781 z m 0,0.351562 c 0.0435,0 0.0742,0.03073 0.0742,0.07422 0,0.04349 -0.0307,0.07422 -0.0742,0.07422 -0.0435,0 -0.0742,-0.03073 -0.0742,-0.07422 0,-0.04349 0.0307,-0.07422 0.0742,-0.07422 z"
       id="circle32" />
    <path
       style="color:#000000;fill:#ff0000;stroke-linecap:square;-inkscape-stroke:none"
       d="m 114.92969,25.146484 c -0.23265,0 -0.42578,0.191181 -0.42578,0.423828 0,0.232648 0.19313,0.425782 0.42578,0.425782 0.23265,0 0.42383,-0.193134 0.42383,-0.425782 0,-0.232647 -0.19118,-0.423828 -0.42383,-0.423828 z m 0,0.34961 c 0.0435,0 0.0742,0.03072 0.0742,0.07422 0,0.0435 -0.0307,0.07617 -0.0742,0.07617 -0.0435,0 -0.0762,-0.03268 -0.0762,-0.07617 0,-0.04349 0.0327,-0.07422 0.0762,-0.07422 z"
       id="circle33" />
    <path
       style="color:#000000;fill:#ff0000;stroke-linecap:square;-inkscape-stroke:none"
       d="m 122,8.0742188 c -0.23265,0 -0.42578,0.1931332 -0.42578,0.4257812 0,0.232648 0.19313,0.4257812 0.42578,0.4257813 0.23265,0 0.42578,-0.1931333 0.42578,-0.4257813 0,-0.232648 -0.19313,-0.4257812 -0.42578,-0.4257812 z m 0,0.3515625 c 0.0435,0 0.0742,0.030725 0.0742,0.074219 0,0.043494 -0.0307,0.074219 -0.0742,0.074219 -0.0435,0 -0.0742,-0.030725 -0.0742,-0.074219 0,-0.043494 0.0307,-0.074219 0.0742,-0.074219 z"
       id="circle34" />
    <title
       id="title34">b'Model_ci\xc4\x99cia'</title>
  </g>
</svg>
