<?xml version="1.0" encoding="UTF-8" standalone="no"?>
<svg
   width="91.80000000000001mm"
   height="61.8mm"
   viewBox="0 0 91.80000000000001 61.8"
   version="1.1"
   id="svg34"
   sodipodi:docname="Model_2.svg"
   xmlns:inkscape="http://www.inkscape.org/namespaces/inkscape"
   xmlns:sodipodi="http://sodipodi.sourceforge.net/DTD/sodipodi-0.dtd"
   xmlns="http://www.w3.org/2000/svg"
   xmlns:svg="http://www.w3.org/2000/svg">
  <defs
     id="defs34" />
  <sodipodi:namedview
     id="namedview34"
     pagecolor="#ffffff"
     bordercolor="#000000"
     borderopacity="0.25"
     inkscape:showpageshadow="2"
     inkscape:pageopacity="0.0"
     inkscape:pagecheckerboard="0"
     inkscape:deskcolor="#d1d1d1"
     inkscape:document-units="mm" />
  <g
     id="Sketch001"
     transform="translate(0.900000,60.900000) scale(1,-1)">
    <path
       style="color:#000000;fill:#00ff00;fill-rule:evenodd;stroke-linecap:square;-inkscape-stroke:none"
       d="M 1.8242187,1.8242187 V 30 30.175781 H 2.1757813 V 30 2.1757813 H 87.824219 V 30 30.175781 h 0.351562 V 30 1.8242187 Z"
       id="Sketch001_w0000" />
    <path
       style="color:#000000;fill:#00ff00;stroke-linecap:square;-inkscape-stroke:none"
       d="M 15,3.3242188 C 8.5541548,3.3242188 3.3242188,8.5541548 3.3242188,15 3.3242188,21.445845 8.5541548,26.675781 15,26.675781 21.445845,26.675781 26.675781,21.445845 26.675781,15 26.675781,8.5541548 21.445845,3.3242188 15,3.3242188 Z m 0,0.3515625 C 21.256691,3.6757813 26.324219,8.7433087 26.324219,15 26.324219,21.256691 21.256691,26.324219 15,26.324219 8.7433087,26.324219 3.6757813,21.256691 3.6757813,15 3.6757813,8.7433087 8.7433087,3.6757813 15,3.6757813 Z"
       id="circle1" />
    <path
       style="color:#000000;fill:#00ff00;stroke-linecap:square;-inkscape-stroke:none"
       d="m 75,3.3242188 c -6.445845,0 -11.675781,5.229936 -11.675781,11.6757812 0,6.445845 5.229936,11.675781 11.675781,11.675781 6.445845,0 11.675781,-5.229936 11.675781,-11.675781 C 86.675781,8.5541548 81.445845,3.3242188 75,3.3242188 Z m 0,0.3515625 C 81.256691,3.6757813 86.324219,8.7433087 86.324219,15 86.324219,21.256691 81.256691,26.324219 75,26.324219 68.743309,26.324219 63.675781,21.256691 63.675781,15 63.675781,8.7433087 68.743309,3.6757813 75,3.6757813 Z"
       id="circle2" />
    <title
       id="title2">b'Model_zgrzewania'</title>
  </g>
  <g
     id="Sketch"
     transform="translate(0.900000,60.900000) scale(1,-1)">
    <path
       style="color:#000000;fill:#ff0000;fill-rule:evenodd;stroke-linecap:square;-inkscape-stroke:none"
       d="M -0.17578125,-0.17578125 V 0 0.17578125 60.175781 H 90.175781 V -0.17578125 H 0.17578125 Z m 0.3515625,0.3515625 H 89.824219 V 59.824219 H 0.17578125 Z"
       id="Sketch_w0000" />
    <path
       style="color:#000000;fill:#ff0000;fill-rule:evenodd;stroke-linecap:square;-inkscape-stroke:none"
       d="M 14.824219,4.8242187 V 5 25 25.175781 h 0.351562 V 25 5 4.8242187 Z"
       id="Sketch_w0001" />
    <path
       style="color:#000000;fill:#ff0000;fill-rule:evenodd;stroke-linecap:square;-inkscape-stroke:none"
       d="m 4.8242187,14.824219 v 0.351562 H 5 25 25.175781 V 14.824219 H 25 5 Z"
       id="Sketch_w0002" />
    <path
       style="color:#000000;fill:#ff0000;fill-rule:evenodd;stroke-linecap:square;-inkscape-stroke:none"
       d="M 22.070312,7.6816406 21.947266,7.8046875 7.8046875,21.947266 7.6816406,22.070312 7.9296875,22.318359 8.0527344,22.195312 22.195312,8.0527344 22.318359,7.9296875 Z"
       id="Sketch_w0003" />
    <path
       style="color:#000000;fill:#ff0000;fill-rule:evenodd;stroke-linecap:square;-inkscape-stroke:none"
       d="M 7.9296875,7.6816406 7.6816406,7.9296875 7.8046875,8.0527344 21.947266,22.195312 22.070312,22.318359 22.318359,22.070312 22.195312,21.947266 8.0527344,7.8046875 Z"
       id="Sketch_w0004" />
    <path
       style="color:#000000;fill:#ff0000;fill-rule:evenodd;stroke-linecap:square;-inkscape-stroke:none"
       d="M 14.824219,34.824219 V 35 55 55.175781 h 0.351562 V 55 35 34.824219 Z"
       id="Sketch_w0005" />
    <path
       style="color:#000000;fill:#ff0000;fill-rule:evenodd;stroke-linecap:square;-inkscape-stroke:none"
       d="m 4.8242187,44.824219 v 0.351562 H 5 25 25.175781 V 44.824219 H 25 5 Z"
       id="Sketch_w0006" />
    <path
       style="color:#000000;fill:#ff0000;fill-rule:evenodd;stroke-linecap:square;-inkscape-stroke:none"
       d="M 22.070312,37.681641 21.947266,37.804687 7.8046875,51.947266 7.6816406,52.070312 7.9296875,52.318359 8.0527344,52.195312 22.195312,38.052734 22.318359,37.929687 Z"
       id="Sketch_w0007" />
    <path
       style="color:#000000;fill:#ff0000;fill-rule:evenodd;stroke-linecap:square;-inkscape-stroke:none"
       d="m 7.9296875,37.681641 -0.2480469,0.248046 0.1230469,0.123047 14.1425785,14.142578 0.123046,0.123047 0.248047,-0.248047 L 22.195312,51.947266 8.0527344,37.804687 Z"
       id="Sketch_w0008" />
    <path
       style="color:#000000;fill:#ff0000;stroke-linecap:square;-inkscape-stroke:none"
       d="m 7.9296875,51.646484 c -0.232648,0 -0.4257813,0.191181 -0.4257813,0.423828 0,0.232648 0.1931333,0.425782 0.4257813,0.425782 0.232648,0 0.4238281,-0.193134 0.4238281,-0.425782 0,-0.232647 -0.1911801,-0.423828 -0.4238281,-0.423828 z m 0,0.34961 c 0.043494,0 0.074219,0.03072 0.074219,0.07422 0,0.0435 -0.030725,0.07617 -0.074219,0.07617 -0.043494,0 -0.076172,-0.03268 -0.076172,-0.07617 0,-0.04349 0.032678,-0.07422 0.076172,-0.07422 z"
       id="circle3" />
    <path
       style="color:#000000;fill:#ff0000;stroke-linecap:square;-inkscape-stroke:none"
       d="m 15,54.574219 c -0.232648,0 -0.425781,0.193133 -0.425781,0.425781 0,0.232648 0.193133,0.425781 0.425781,0.425781 0.232648,0 0.425781,-0.193133 0.425781,-0.425781 0,-0.232648 -0.193133,-0.425781 -0.425781,-0.425781 z m 0,0.351562 c 0.04349,0 0.07422,0.03072 0.07422,0.07422 0,0.04349 -0.03072,0.07422 -0.07422,0.07422 -0.04349,0 -0.07422,-0.03072 -0.07422,-0.07422 0,-0.04349 0.03072,-0.07422 0.07422,-0.07422 z"
       id="circle4" />
    <path
       style="color:#000000;fill:#ff0000;stroke-linecap:square;-inkscape-stroke:none"
       d="m 22.070312,51.646484 c -0.232647,0 -0.423828,0.191181 -0.423828,0.423828 0,0.232648 0.191181,0.425782 0.423828,0.425782 0.232648,0 0.425782,-0.193134 0.425782,-0.425782 0,-0.232647 -0.193134,-0.423828 -0.425782,-0.423828 z m 0,0.34961 c 0.0435,0 0.07617,0.03072 0.07617,0.07422 0,0.0435 -0.03268,0.07617 -0.07617,0.07617 -0.04349,0 -0.07422,-0.03268 -0.07422,-0.07617 0,-0.04349 0.03072,-0.07422 0.07422,-0.07422 z"
       id="circle5" />
    <path
       style="color:#000000;fill:#ff0000;stroke-linecap:square;-inkscape-stroke:none"
       d="m 25,44.574219 c -0.232648,0 -0.425781,0.193133 -0.425781,0.425781 0,0.232648 0.193133,0.425781 0.425781,0.425781 0.232648,0 0.425781,-0.193133 0.425781,-0.425781 0,-0.232648 -0.193133,-0.425781 -0.425781,-0.425781 z m 0,0.351562 c 0.04349,0 0.07422,0.03072 0.07422,0.07422 0,0.04349 -0.03073,0.07422 -0.07422,0.07422 -0.04349,0 -0.07422,-0.03072 -0.07422,-0.07422 0,-0.04349 0.03073,-0.07422 0.07422,-0.07422 z"
       id="circle6" />
    <path
       style="color:#000000;fill:#ff0000;stroke-linecap:square;-inkscape-stroke:none"
       d="m 22.070312,37.503906 c -0.232647,0 -0.423828,0.193134 -0.423828,0.425781 0,0.232648 0.191181,0.423829 0.423828,0.423829 0.232648,0 0.425782,-0.191181 0.425782,-0.423829 0,-0.232647 -0.193134,-0.425781 -0.425782,-0.425781 z m 0,0.34961 c 0.0435,0 0.07617,0.03268 0.07617,0.07617 0,0.0435 -0.03268,0.07422 -0.07617,0.07422 -0.04349,0 -0.07422,-0.03072 -0.07422,-0.07422 0,-0.04349 0.03072,-0.07617 0.07422,-0.07617 z"
       id="circle7" />
    <path
       style="color:#000000;fill:#ff0000;stroke-linecap:square;-inkscape-stroke:none"
       d="m 15,34.574219 c -0.232648,0 -0.425781,0.193133 -0.425781,0.425781 0,0.232648 0.193133,0.425781 0.425781,0.425781 0.232648,0 0.425781,-0.193133 0.425781,-0.425781 0,-0.232648 -0.193133,-0.425781 -0.425781,-0.425781 z m 0,0.351562 c 0.04349,0 0.07422,0.03072 0.07422,0.07422 0,0.04349 -0.03072,0.07422 -0.07422,0.07422 -0.04349,0 -0.07422,-0.03072 -0.07422,-0.07422 0,-0.04349 0.03072,-0.07422 0.07422,-0.07422 z"
       id="circle8" />
    <path
       style="color:#000000;fill:#ff0000;stroke-linecap:square;-inkscape-stroke:none"
       d="m 7.9296875,37.503906 c -0.232648,0 -0.4257813,0.193134 -0.4257813,0.425781 0,0.232648 0.1931333,0.423829 0.4257813,0.423829 0.232648,0 0.4238281,-0.191181 0.4238281,-0.423829 0,-0.232647 -0.1911801,-0.425781 -0.4238281,-0.425781 z m 0,0.34961 c 0.043494,0 0.074219,0.03268 0.074219,0.07617 0,0.0435 -0.030725,0.07422 -0.074219,0.07422 -0.043494,0 -0.076172,-0.03072 -0.076172,-0.07422 0,-0.04349 0.032678,-0.07617 0.076172,-0.07617 z"
       id="circle9" />
    <path
       style="color:#000000;fill:#ff0000;stroke-linecap:square;-inkscape-stroke:none"
       d="m 5,44.574219 c -0.232648,0 -0.4257813,0.193133 -0.4257813,0.425781 0,0.232648 0.1931333,0.425781 0.4257813,0.425781 0.232648,0 0.4257812,-0.193133 0.4257812,-0.425781 C 5.4257812,44.767352 5.232648,44.574219 5,44.574219 Z m 0,0.351562 c 0.043494,0 0.074219,0.03072 0.074219,0.07422 0,0.04349 -0.030725,0.07422 -0.074219,0.07422 -0.043494,0 -0.074219,-0.03072 -0.074219,-0.07422 0,-0.04349 0.030725,-0.07422 0.074219,-0.07422 z"
       id="circle10" />
    <path
       style="color:#000000;fill:#ff0000;stroke-linecap:square;-inkscape-stroke:none"
       d="m 5,14.574219 c -0.232648,0 -0.4257813,0.193133 -0.4257813,0.425781 0,0.232648 0.1931333,0.425781 0.4257813,0.425781 0.232648,0 0.4257812,-0.193133 0.4257812,-0.425781 C 5.4257812,14.767352 5.232648,14.574219 5,14.574219 Z m 0,0.351562 c 0.043494,0 0.074219,0.03072 0.074219,0.07422 0,0.04349 -0.030725,0.07422 -0.074219,0.07422 -0.043494,0 -0.074219,-0.03072 -0.074219,-0.07422 0,-0.04349 0.030725,-0.07422 0.074219,-0.07422 z"
       id="circle11" />
    <path
       style="color:#000000;fill:#ff0000;stroke-linecap:square;-inkscape-stroke:none"
       d="m 7.9296875,21.646484 c -0.232648,0 -0.4257812,0.191181 -0.4257813,0.423828 0,0.232648 0.1931333,0.425782 0.4257813,0.425782 0.232648,0 0.4238281,-0.193134 0.4238281,-0.425782 0,-0.232647 -0.1911801,-0.423828 -0.4238281,-0.423828 z m 0,0.34961 c 0.043494,0 0.074219,0.03072 0.074219,0.07422 0,0.0435 -0.030725,0.07617 -0.074219,0.07617 -0.043494,0 -0.076172,-0.03268 -0.076172,-0.07617 0,-0.04349 0.032678,-0.07422 0.076172,-0.07422 z"
       id="circle12" />
    <path
       style="color:#000000;fill:#ff0000;stroke-linecap:square;-inkscape-stroke:none"
       d="m 15,24.574219 c -0.232648,0 -0.425781,0.193133 -0.425781,0.425781 0,0.232648 0.193133,0.425781 0.425781,0.425781 0.232648,0 0.425781,-0.193133 0.425781,-0.425781 0,-0.232648 -0.193133,-0.425781 -0.425781,-0.425781 z m 0,0.351562 c 0.04349,0 0.07422,0.03073 0.07422,0.07422 0,0.04349 -0.03072,0.07422 -0.07422,0.07422 -0.04349,0 -0.07422,-0.03073 -0.07422,-0.07422 0,-0.04349 0.03072,-0.07422 0.07422,-0.07422 z"
       id="circle13" />
    <path
       style="color:#000000;fill:#ff0000;stroke-linecap:square;-inkscape-stroke:none"
       d="m 22.070312,21.646484 c -0.232647,0 -0.423828,0.191181 -0.423828,0.423828 0,0.232648 0.191181,0.425782 0.423828,0.425782 0.232648,0 0.425782,-0.193134 0.425782,-0.425782 0,-0.232647 -0.193134,-0.423828 -0.425782,-0.423828 z m 0,0.34961 c 0.0435,0 0.07617,0.03072 0.07617,0.07422 0,0.0435 -0.03268,0.07617 -0.07617,0.07617 -0.04349,0 -0.07422,-0.03268 -0.07422,-0.07617 0,-0.04349 0.03072,-0.07422 0.07422,-0.07422 z"
       id="circle14" />
    <path
       style="color:#000000;fill:#ff0000;stroke-linecap:square;-inkscape-stroke:none"
       d="m 25,14.574219 c -0.232648,0 -0.425781,0.193133 -0.425781,0.425781 0,0.232648 0.193133,0.425781 0.425781,0.425781 0.232648,0 0.425781,-0.193133 0.425781,-0.425781 0,-0.232648 -0.193133,-0.425781 -0.425781,-0.425781 z m 0,0.351562 c 0.04349,0 0.07422,0.03072 0.07422,0.07422 0,0.04349 -0.03073,0.07422 -0.07422,0.07422 -0.04349,0 -0.07422,-0.03072 -0.07422,-0.07422 0,-0.04349 0.03073,-0.07422 0.07422,-0.07422 z"
       id="circle15" />
    <path
       style="color:#000000;fill:#ff0000;stroke-linecap:square;-inkscape-stroke:none"
       d="m 22.070312,7.5039062 c -0.232647,0 -0.423828,0.1931333 -0.423828,0.4257813 0,0.232648 0.191181,0.4238281 0.423828,0.4238281 0.232648,0 0.425782,-0.1911801 0.425782,-0.4238281 0,-0.232648 -0.193134,-0.4257812 -0.425782,-0.4257813 z m 0,0.3496094 c 0.0435,0 0.07617,0.032678 0.07617,0.076172 0,0.043494 -0.03268,0.074219 -0.07617,0.074219 -0.04349,0 -0.07422,-0.030725 -0.07422,-0.074219 0,-0.043494 0.03072,-0.076172 0.07422,-0.076172 z"
       id="circle16" />
    <path
       style="color:#000000;fill:#ff0000;stroke-linecap:square;-inkscape-stroke:none"
       d="m 15,4.5742187 c -0.232648,0 -0.425781,0.1931333 -0.425781,0.4257813 0,0.232648 0.193133,0.4257812 0.425781,0.4257812 0.232648,0 0.425781,-0.1931332 0.425781,-0.4257812 0,-0.232648 -0.193133,-0.4257813 -0.425781,-0.4257813 z m 0,0.3515625 c 0.04349,0 0.07422,0.030725 0.07422,0.074219 0,0.043494 -0.03072,0.074219 -0.07422,0.074219 -0.04349,0 -0.07422,-0.030725 -0.07422,-0.074219 0,-0.043494 0.03072,-0.074219 0.07422,-0.074219 z"
       id="circle17" />
    <path
       style="color:#000000;fill:#ff0000;stroke-linecap:square;-inkscape-stroke:none"
       d="m 7.9296875,7.5039062 c -0.232648,0 -0.4257812,0.1931333 -0.4257813,0.4257813 0,0.232648 0.1931333,0.4238281 0.4257813,0.4238281 0.232648,0 0.4238281,-0.1911801 0.4238281,-0.4238281 0,-0.232648 -0.1911801,-0.4257812 -0.4238281,-0.4257813 z m 0,0.3496094 c 0.043494,0 0.074219,0.032678 0.074219,0.076172 0,0.043494 -0.030725,0.074219 -0.074219,0.074219 -0.043494,0 -0.076172,-0.030725 -0.076172,-0.074219 0,-0.043494 0.032678,-0.076172 0.076172,-0.076172 z"
       id="circle18" />
    <path
       style="color:#000000;fill:#ff0000;fill-rule:evenodd;stroke-linecap:square;-inkscape-stroke:none"
       d="M 74.824219,4.8242187 V 5 25 25.175781 h 0.351562 V 25 5 4.8242187 Z"
       id="Sketch_w0025" />
    <path
       style="color:#000000;fill:#ff0000;fill-rule:evenodd;stroke-linecap:square;-inkscape-stroke:none"
       d="m 64.824219,14.824219 v 0.351562 H 65 85 85.175781 V 14.824219 H 85 65 Z"
       id="Sketch_w0026" />
    <path
       style="color:#000000;fill:#ff0000;fill-rule:evenodd;stroke-linecap:square;-inkscape-stroke:none"
       d="M 82.070312,7.6816406 81.947266,7.8046875 67.804687,21.947266 67.681641,22.070312 67.929687,22.318359 68.052734,22.195312 82.195312,8.0527344 82.318359,7.9296875 Z"
       id="Sketch_w0027" />
    <path
       style="color:#000000;fill:#ff0000;fill-rule:evenodd;stroke-linecap:square;-inkscape-stroke:none"
       d="m 67.929687,7.6816406 -0.248046,0.2480469 0.123046,0.1230469 14.142579,14.1425776 0.123046,0.123047 0.248047,-0.248047 L 82.195312,21.947266 68.052734,7.8046875 Z"
       id="Sketch_w0028" />
    <path
       style="color:#000000;fill:#ff0000;fill-rule:evenodd;stroke-linecap:square;-inkscape-stroke:none"
       d="M 74.824219,34.824219 V 35 55 55.175781 h 0.351562 V 55 35 34.824219 Z"
       id="Sketch_w0029" />
    <path
       style="color:#000000;fill:#ff0000;fill-rule:evenodd;stroke-linecap:square;-inkscape-stroke:none"
       d="m 64.824219,44.824219 v 0.351562 H 65 85 85.175781 V 44.824219 H 85 65 Z"
       id="Sketch_w0030" />
    <path
       style="color:#000000;fill:#ff0000;fill-rule:evenodd;stroke-linecap:square;-inkscape-stroke:none"
       d="m 82.070312,37.681641 -0.123046,0.123046 -14.142579,14.142579 -0.123046,0.123046 0.248046,0.248047 0.123047,-0.123047 14.142578,-14.142578 0.123047,-0.123047 z"
       id="Sketch_w0031" />
    <path
       style="color:#000000;fill:#ff0000;fill-rule:evenodd;stroke-linecap:square;-inkscape-stroke:none"
       d="m 67.929687,37.681641 -0.248046,0.248046 0.123046,0.123047 14.142579,14.142578 0.123046,0.123047 0.248047,-0.248047 -0.123047,-0.123046 -14.142578,-14.142579 z"
       id="Sketch_w0032" />
    <path
       style="color:#000000;fill:#ff0000;stroke-linecap:square;-inkscape-stroke:none"
       d="m 67.929687,51.646484 c -0.232647,0 -0.425781,0.191181 -0.425781,0.423828 0,0.232648 0.193134,0.425782 0.425781,0.425782 0.232648,0 0.423829,-0.193134 0.423829,-0.425782 0,-0.232647 -0.191181,-0.423828 -0.423829,-0.423828 z m 0,0.34961 c 0.04349,0 0.07422,0.03072 0.07422,0.07422 0,0.0435 -0.03072,0.07617 -0.07422,0.07617 -0.04349,0 -0.07617,-0.03268 -0.07617,-0.07617 0,-0.04349 0.03268,-0.07422 0.07617,-0.07422 z"
       id="circle19" />
    <path
       style="color:#000000;fill:#ff0000;stroke-linecap:square;-inkscape-stroke:none"
       d="m 75,54.574219 c -0.232648,0 -0.425781,0.193133 -0.425781,0.425781 0,0.232648 0.193133,0.425781 0.425781,0.425781 0.232648,0 0.425781,-0.193133 0.425781,-0.425781 0,-0.232648 -0.193133,-0.425781 -0.425781,-0.425781 z m 0,0.351562 c 0.04349,0 0.07422,0.03072 0.07422,0.07422 0,0.04349 -0.03073,0.07422 -0.07422,0.07422 -0.04349,0 -0.07422,-0.03072 -0.07422,-0.07422 0,-0.04349 0.03073,-0.07422 0.07422,-0.07422 z"
       id="circle20" />
    <path
       style="color:#000000;fill:#ff0000;stroke-linecap:square;-inkscape-stroke:none"
       d="m 82.070312,51.646484 c -0.232647,0 -0.423828,0.191181 -0.423828,0.423828 0,0.232648 0.191181,0.425782 0.423828,0.425782 0.232648,0 0.425782,-0.193134 0.425782,-0.425782 0,-0.232647 -0.193134,-0.423828 -0.425782,-0.423828 z m 0,0.34961 c 0.04349,0 0.07617,0.03072 0.07617,0.07422 0,0.0435 -0.03268,0.07617 -0.07617,0.07617 -0.04349,0 -0.07422,-0.03268 -0.07422,-0.07617 0,-0.04349 0.03072,-0.07422 0.07422,-0.07422 z"
       id="circle21" />
    <path
       style="color:#000000;fill:#ff0000;stroke-linecap:square;-inkscape-stroke:none"
       d="m 85,44.574219 c -0.232648,0 -0.425781,0.193133 -0.425781,0.425781 0,0.232648 0.193133,0.425781 0.425781,0.425781 0.232648,0 0.425781,-0.193133 0.425781,-0.425781 0,-0.232648 -0.193133,-0.425781 -0.425781,-0.425781 z m 0,0.351562 c 0.04349,0 0.07422,0.03072 0.07422,0.07422 0,0.04349 -0.03073,0.07422 -0.07422,0.07422 -0.04349,0 -0.07422,-0.03072 -0.07422,-0.07422 0,-0.04349 0.03073,-0.07422 0.07422,-0.07422 z"
       id="circle22" />
    <path
       style="color:#000000;fill:#ff0000;stroke-linecap:square;-inkscape-stroke:none"
       d="m 82.070312,37.503906 c -0.232647,0 -0.423828,0.193134 -0.423828,0.425781 0,0.232648 0.191181,0.423829 0.423828,0.423829 0.232648,0 0.425782,-0.191181 0.425782,-0.423829 0,-0.232647 -0.193134,-0.425781 -0.425782,-0.425781 z m 0,0.34961 c 0.04349,0 0.07617,0.03268 0.07617,0.07617 0,0.0435 -0.03268,0.07422 -0.07617,0.07422 -0.04349,0 -0.07422,-0.03072 -0.07422,-0.07422 0,-0.04349 0.03072,-0.07617 0.07422,-0.07617 z"
       id="circle23" />
    <path
       style="color:#000000;fill:#ff0000;stroke-linecap:square;-inkscape-stroke:none"
       d="m 75,34.574219 c -0.232648,0 -0.425781,0.193133 -0.425781,0.425781 0,0.232648 0.193133,0.425781 0.425781,0.425781 0.232648,0 0.425781,-0.193133 0.425781,-0.425781 0,-0.232648 -0.193133,-0.425781 -0.425781,-0.425781 z m 0,0.351562 c 0.04349,0 0.07422,0.03072 0.07422,0.07422 0,0.04349 -0.03073,0.07422 -0.07422,0.07422 -0.04349,0 -0.07422,-0.03072 -0.07422,-0.07422 0,-0.04349 0.03073,-0.07422 0.07422,-0.07422 z"
       id="circle24" />
    <path
       style="color:#000000;fill:#ff0000;stroke-linecap:square;-inkscape-stroke:none"
       d="m 67.929687,37.503906 c -0.232647,0 -0.425781,0.193134 -0.425781,0.425781 0,0.232648 0.193134,0.423829 0.425781,0.423829 0.232648,0 0.423829,-0.191181 0.423829,-0.423829 0,-0.232647 -0.191181,-0.425781 -0.423829,-0.425781 z m 0,0.34961 c 0.04349,0 0.07422,0.03268 0.07422,0.07617 0,0.0435 -0.03072,0.07422 -0.07422,0.07422 -0.04349,0 -0.07617,-0.03072 -0.07617,-0.07422 0,-0.04349 0.03268,-0.07617 0.07617,-0.07617 z"
       id="circle25" />
    <path
       style="color:#000000;fill:#ff0000;stroke-linecap:square;-inkscape-stroke:none"
       d="m 65,44.574219 c -0.232648,0 -0.425781,0.193133 -0.425781,0.425781 0,0.232648 0.193133,0.425781 0.425781,0.425781 0.232648,0 0.425781,-0.193133 0.425781,-0.425781 0,-0.232648 -0.193133,-0.425781 -0.425781,-0.425781 z m 0,0.351562 c 0.04349,0 0.07422,0.03072 0.07422,0.07422 0,0.04349 -0.03073,0.07422 -0.07422,0.07422 -0.04349,0 -0.07422,-0.03072 -0.07422,-0.07422 0,-0.04349 0.03073,-0.07422 0.07422,-0.07422 z"
       id="circle26" />
    <path
       style="color:#000000;fill:#ff0000;stroke-linecap:square;-inkscape-stroke:none"
       d="m 65,14.574219 c -0.232648,0 -0.425781,0.193133 -0.425781,0.425781 0,0.232648 0.193133,0.425781 0.425781,0.425781 0.232648,0 0.425781,-0.193133 0.425781,-0.425781 0,-0.232648 -0.193133,-0.425781 -0.425781,-0.425781 z m 0,0.351562 c 0.04349,0 0.07422,0.03072 0.07422,0.07422 0,0.04349 -0.03073,0.07422 -0.07422,0.07422 -0.04349,0 -0.07422,-0.03072 -0.07422,-0.07422 0,-0.04349 0.03073,-0.07422 0.07422,-0.07422 z"
       id="circle27" />
    <path
       style="color:#000000;fill:#ff0000;stroke-linecap:square;-inkscape-stroke:none"
       d="m 67.929687,21.646484 c -0.232647,0 -0.425781,0.191181 -0.425781,0.423828 0,0.232648 0.193134,0.425782 0.425781,0.425782 0.232648,0 0.423829,-0.193134 0.423829,-0.425782 0,-0.232647 -0.191181,-0.423828 -0.423829,-0.423828 z m 0,0.34961 c 0.04349,0 0.07422,0.03072 0.07422,0.07422 0,0.0435 -0.03072,0.07617 -0.07422,0.07617 -0.04349,0 -0.07617,-0.03268 -0.07617,-0.07617 0,-0.04349 0.03268,-0.07422 0.07617,-0.07422 z"
       id="circle28" />
    <path
       style="color:#000000;fill:#ff0000;stroke-linecap:square;-inkscape-stroke:none"
       d="m 75,24.574219 c -0.232648,0 -0.425781,0.193133 -0.425781,0.425781 0,0.232648 0.193133,0.425781 0.425781,0.425781 0.232648,0 0.425781,-0.193133 0.425781,-0.425781 0,-0.232648 -0.193133,-0.425781 -0.425781,-0.425781 z m 0,0.351562 c 0.04349,0 0.07422,0.03073 0.07422,0.07422 0,0.04349 -0.03073,0.07422 -0.07422,0.07422 -0.04349,0 -0.07422,-0.03073 -0.07422,-0.07422 0,-0.04349 0.03073,-0.07422 0.07422,-0.07422 z"
       id="circle29" />
    <path
       style="color:#000000;fill:#ff0000;stroke-linecap:square;-inkscape-stroke:none"
       d="m 82.070312,21.646484 c -0.232647,0 -0.423828,0.191181 -0.423828,0.423828 0,0.232648 0.191181,0.425782 0.423828,0.425782 0.232648,0 0.425782,-0.193134 0.425782,-0.425782 0,-0.232647 -0.193134,-0.423828 -0.425782,-0.423828 z m 0,0.34961 c 0.04349,0 0.07617,0.03072 0.07617,0.07422 0,0.0435 -0.03268,0.07617 -0.07617,0.07617 -0.04349,0 -0.07422,-0.03268 -0.07422,-0.07617 0,-0.04349 0.03072,-0.07422 0.07422,-0.07422 z"
       id="circle30" />
    <path
       style="color:#000000;fill:#ff0000;stroke-linecap:square;-inkscape-stroke:none"
       d="m 85,14.574219 c -0.232648,0 -0.425781,0.193133 -0.425781,0.425781 0,0.232648 0.193133,0.425781 0.425781,0.425781 0.232648,0 0.425781,-0.193133 0.425781,-0.425781 0,-0.232648 -0.193133,-0.425781 -0.425781,-0.425781 z m 0,0.351562 c 0.04349,0 0.07422,0.03072 0.07422,0.07422 0,0.04349 -0.03073,0.07422 -0.07422,0.07422 -0.04349,0 -0.07422,-0.03072 -0.07422,-0.07422 0,-0.04349 0.03073,-0.07422 0.07422,-0.07422 z"
       id="circle31" />
    <path
       style="color:#000000;fill:#ff0000;stroke-linecap:square;-inkscape-stroke:none"
       d="m 82.070312,7.5039062 c -0.232647,0 -0.423828,0.1931333 -0.423828,0.4257813 0,0.232648 0.191181,0.4238281 0.423828,0.4238281 0.232648,0 0.425782,-0.1911801 0.425782,-0.4238281 0,-0.232648 -0.193134,-0.4257812 -0.425782,-0.4257813 z m 0,0.3496094 c 0.04349,0 0.07617,0.032678 0.07617,0.076172 0,0.043494 -0.03268,0.074219 -0.07617,0.074219 -0.04349,0 -0.07422,-0.030725 -0.07422,-0.074219 0,-0.043494 0.03072,-0.076172 0.07422,-0.076172 z"
       id="circle32" />
    <path
       style="color:#000000;fill:#ff0000;stroke-linecap:square;-inkscape-stroke:none"
       d="m 75,4.5742187 c -0.232648,0 -0.425781,0.1931333 -0.425781,0.4257813 0,0.232648 0.193133,0.4257812 0.425781,0.4257812 0.232648,0 0.425781,-0.1931332 0.425781,-0.4257812 0,-0.232648 -0.193133,-0.4257812 -0.425781,-0.4257813 z m 0,0.3515625 c 0.04349,0 0.07422,0.030725 0.07422,0.074219 0,0.043494 -0.03073,0.074219 -0.07422,0.074219 -0.04349,0 -0.07422,-0.030725 -0.07422,-0.074219 0,-0.043494 0.03073,-0.074219 0.07422,-0.074219 z"
       id="circle33" />
    <path
       style="color:#000000;fill:#ff0000;stroke-linecap:square;-inkscape-stroke:none"
       d="m 67.929687,7.5039062 c -0.232647,0 -0.425781,0.1931333 -0.425781,0.4257813 0,0.232648 0.193134,0.4238281 0.425781,0.4238281 0.232648,0 0.423829,-0.1911801 0.423829,-0.4238281 0,-0.232648 -0.191181,-0.4257812 -0.423829,-0.4257813 z m 0,0.3496094 c 0.04349,0 0.07422,0.032678 0.07422,0.076172 0,0.043494 -0.03072,0.074219 -0.07422,0.074219 -0.04349,0 -0.07617,-0.030725 -0.07617,-0.074219 0,-0.043494 0.03268,-0.076172 0.07617,-0.076172 z"
       id="circle34" />
    <title
       id="title34">b'Model_ci\xc4\x99cia'</title>
  </g>
</svg>
